Coordinates
version=1
nRows=13
nColumns=34
inDegrees=yes

Units are S.I. units (second, meters, Newtons, ...)
If the header above contains a line with 'inDegrees', this indicates whether rotational values are in degrees (yes) or radians (no).

endheader
time	pelvis_tilt	pelvis_list	pelvis_rotation	pelvis_tx	pelvis_ty	pelvis_tz	hip_flexion_r	hip_adduction_r	hip_rotation_r	knee_angle_r	ankle_angle_r	subtalar_angle_r	mtp_angle_r	hip_flexion_l	hip_adduction_l	hip_rotation_l	knee_angle_l	ankle_angle_l	subtalar_angle_l	mtp_angle_l	lumbar_extension	lumbar_bending	lumbar_rotation	arm_flex_r	arm_add_r	arm_rot_r	elbow_flex_r	pro_sup_r	arm_flex_l	arm_add_l	arm_rot_l	elbow_flex_l	pro_sup_l
      3.11666670	     -8.35456284	      3.69250226	      4.87382760	      1.95246481	      0.94130850	     -0.14836556	      1.70484295	     -7.67330744	    -18.33871923	      5.47001559	     -9.16513926	     -1.16785213	      0.00000000	      5.43045938	     -3.74657877	     -8.25448537	      5.63056419	    -13.86225329	     10.36011162	      0.00000000	     -1.70847692	     -7.66081880	     11.83565337	    132.46327275	     -7.78037364	     18.26776480	     25.74050951	     98.35973661	    112.97913288	      4.86437177	     24.00670575	     84.87525740	     90.98708712
      3.13333330	     -9.61635759	      3.70081970	      5.14340461	      1.95964359	      0.93883719	     -0.14751631	      2.57959557	     -7.72279664	    -18.47463294	      4.74859219	    -11.63378587	     -1.40048902	      0.00000000	      6.23917206	     -3.35252987	     -7.79050493	      4.64671300	    -15.87662185	      8.63230318	      0.00000000	     -0.27571154	     -8.67182603	     13.83989613	    142.12420968	     -8.82308561	     38.71402662	     14.05120503	     89.60629605	    116.92995029	      6.36460077	     24.97104883	     81.28508306	     85.73014849
      3.15000000	    -10.12958320	      3.73776480	      5.40499293	      1.96606463	      0.93927596	     -0.14680469	      2.48197637	     -7.71413361	    -18.28092829	      3.93651010	    -14.12055237	     -2.07086303	      0.00000000	      6.16380811	     -3.00658776	     -7.43736991	      3.88134858	    -17.26171729	      6.81261960	      0.00000000	      0.12065902	     -9.76547616	     14.42053819	    147.74027120	     -8.10689012	     38.72993354	      9.93547253	     87.01938113	    121.13548591	      7.30168574	     25.32287139	     78.68071185	     85.42280112
      3.16666670	    -10.90875548	      3.69215494	      5.72718401	      1.97148168	      0.93868909	     -0.14644790	      2.80823948	     -7.75391997	    -17.92067978	      3.51004836	    -16.30362511	     -2.78594233	      0.00000000	      6.38966506	     -2.67580984	     -6.87199791	      3.23253852	    -18.60495615	      4.74162042	      0.00000000	      0.91766988	    -10.42140611	     14.56102166	    152.03242882	     -6.85685747	     40.35161531	      7.87540069	     84.25229490	    123.72739418	      7.61708755	     25.00143239	     78.15187384	     85.16537026
      3.18333330	    -12.11682448	      3.44820316	      6.16898193	      1.97652716	      0.93618625	     -0.14537972	      3.79023558	     -7.64102558	    -17.52058085	      3.47800977	    -17.92099677	     -3.51095802	      0.00000000	      7.25538941	     -2.56283264	     -6.25067108	      2.94748093	    -19.49199724	      3.30714968	      0.00000000	      2.33083600	    -10.61821915	     14.18402145	    155.35111191	     -4.87631818	     53.55771176	      5.83638734	     64.79153456	    124.78502120	      7.13700159	     24.48658100	     79.79462667	     85.35379186
      3.20000000	    -12.09099326	      3.47801943	      6.20589688	      1.98168666	      0.93521415	     -0.14322677	      3.49022631	     -7.61134599	    -16.81763936	      3.43561349	    -18.88895829	     -3.60165290	      0.00000000	      6.72889157	     -2.37138465	     -6.15764551	      2.74523970	    -20.01708664	      1.90866476	      0.00000000	      2.09356919	    -11.01768043	     14.10771632	    157.72427786	     -3.93860706	     53.44255776	      8.55939138	     64.15283827	    125.92038307	      6.66881921	     24.16304196	     81.07542393	     85.49991416
      3.21666670	    -12.41184922	      3.33700821	      6.18606071	      1.98810740	      0.93467918	     -0.14177550	      3.62873362	     -7.40267570	    -16.46245376	      3.56745022	    -19.60670255	     -3.54380187	      0.00000000	      6.62531779	     -2.38429893	     -6.36440492	      2.70948923	    -20.25384085	      1.04992801	      0.00000000	      2.54030380	    -11.03670776	     13.96079790	    159.18468503	     -2.24510276	     53.33571238	      9.99085357	     63.96878085	    126.18739077	      6.06442934	     24.20033347	     82.24938487	     85.63677321
      3.23333330	    -12.36468992	      3.16873932	      6.25120709	      1.99551730	      0.93403618	     -0.14136720	      3.24051386	     -7.11430740	    -15.84605395	      3.81272858	    -19.67466601	     -4.15910206	      0.00000000	      5.97578428	     -2.42559765	     -6.17424266	      2.47091385	    -20.58141853	     -0.53360418	      0.00000000	      2.52371731	    -10.73848435	     13.13917007	    159.96220947	     -0.46536182	     52.84664953	     11.96820690	     63.59728752	    125.18012850	      4.25968085	     24.69782356	     86.66061118	     86.17105590
      3.25000000	    -12.41846757	      2.99963055	      6.38165528	      2.00261623	      0.93437526	     -0.14177527	      2.79382738	     -6.92087119	    -15.74077644	      4.05356715	    -19.09287389	     -3.99879643	      0.00000000	      5.49177135	     -2.46213217	     -6.36131554	      2.54053634	    -20.11978023	     -1.56840487	      0.00000000	      2.80299034	    -10.39505815	     12.32362523	    159.97796309	      1.18163257	     51.28543794	     13.63642730	     63.14661884	    123.56699170	      2.77553035	     25.08091096	     89.93166946	     87.41971263
      3.26666670	    -12.11550797	      2.91366006	      6.31790031	      2.00856590	      0.93281220	     -0.14275825	      1.86095742	     -6.80452842	    -15.23012080	      4.18736616	    -18.22357783	     -3.62885232	      0.00000000	      4.43070706	     -2.41953037	     -7.02967939	      2.41938942	    -19.68117394	     -2.38839171	      0.00000000	      2.58344067	    -10.20185255	     12.19923145	    160.06505530	      1.96953179	     50.95805049	     15.54488319	     63.34626119	    121.68490294	      2.13816314	     25.05718922	     92.50339428	     88.01807509
      3.28333330	    -11.93577201	      2.77090676	      6.25417254	      2.01343366	      0.92955059	     -0.14506771	      1.01346465	     -6.68515212	    -14.63663207	      4.25819709	    -16.98014495	     -3.28598316	      0.00000000	      3.52994379	     -2.35462474	     -7.38165337	      2.34668736	    -18.62837430	     -3.15832583	      0.00000000	      2.50715015	    -10.01495741	     12.15523396	    159.77643513	      2.40073511	     50.90028637	     17.18452150	     63.70014108	    119.53662558	      1.97041410	     24.98138229	     94.61005623	     88.47638913
      3.30000000	    -11.79778922	      2.59281451	      6.19168104	      2.01795111	      0.92560269	     -0.14814600	      0.28167686	     -6.58347489	    -14.29241132	      4.37652555	    -15.68091673	     -2.98253680	      0.00000000	      2.85757727	     -2.28537424	     -7.93000174	      2.52227030	    -17.41076983	     -3.94787400	      0.00000000	      2.42495633	     -9.83135941	     11.93287681	    159.11755679	      2.23850835	     50.93717677	     18.99719691	     64.37447673	    117.02787369	      1.96971216	     24.43210237	     96.66865132	     89.08458632
      3.31666670	    -11.58253882	      2.47583658	      6.03578886	      2.02310545	      0.92211634	     -0.15105740	     -0.52859158	     -6.52931639	    -13.85976265	      4.42716399	    -14.30456768	     -2.84887704	      0.00000000	      2.00252201	     -2.12282123	     -8.28926184	      2.54221771	    -16.08457114	     -4.61783411	      0.00000000	      2.28728902	     -9.60293433	     11.85627990	    157.99594681	      2.04273650	     51.12913129	     20.52434933	     65.08876212	    114.45678262	      1.93420682	     24.15742715	     98.29179777	     89.61201146
